<svg width="20" height="21" viewBox="0 0 20 21" fill="none" xmlns="http://www.w3.org/2000/svg">
<path d="M4.8529 3.52666L9.99957 8.67332L15.1196 3.55332C15.2327 3.43295 15.3689 3.33665 15.5201 3.27021C15.6713 3.20376 15.8344 3.16854 15.9996 3.16666C16.3532 3.16666 16.6923 3.30713 16.9424 3.55718C17.1924 3.80723 17.3329 4.14637 17.3329 4.49999C17.336 4.66346 17.3057 4.82584 17.2438 4.97717C17.1819 5.12849 17.0897 5.26557 16.9729 5.37999L11.7862 10.5L16.9729 15.6867C17.1927 15.9016 17.3215 16.1928 17.3329 16.5C17.3329 16.8536 17.1924 17.1928 16.9424 17.4428C16.6923 17.6928 16.3532 17.8333 15.9996 17.8333C15.8296 17.8404 15.6601 17.812 15.5017 17.75C15.3433 17.6881 15.1996 17.5938 15.0796 17.4733L9.99957 12.3267L4.86623 17.46C4.75357 17.5764 4.61899 17.6693 4.47024 17.7333C4.32149 17.7974 4.16152 17.8314 3.99957 17.8333C3.64594 17.8333 3.30681 17.6928 3.05676 17.4428C2.80671 17.1928 2.66623 16.8536 2.66623 16.5C2.66312 16.3365 2.69345 16.1741 2.75536 16.0228C2.81727 15.8715 2.90944 15.7344 3.02623 15.62L8.2129 10.5L3.02623 5.31332C2.80648 5.09834 2.67762 4.80721 2.66623 4.49999C2.66623 4.14637 2.80671 3.80723 3.05676 3.55718C3.30681 3.30713 3.64594 3.16666 3.99957 3.16666C4.31957 3.17066 4.62623 3.29999 4.8529 3.52666Z" fill="#FF0000"/>
</svg>
